:FULLY-SPECIFIED
:FORCE-ALL-JOINTS-BE-3DOF
:DEGREES
340
root 9.54536 16.5357 11.6904 6.62571 8.08027 1.24706
lfemur 11.0948 5.62315 -18.3176
ltibia 15.8612 -0 0
lfoot -2.47358 0.156042 -0.445759
ltoes -11.477 0 0
rfemur -35.3482 3.13616 19.6931
rtibia 37.6549 -0 0
rfoot -9.32454 1.12007 -0.0374421
rtoes -18.7812 0 0
lowerback -7.32444 -3.43364 -3.71803
upperback -1.24499 -4.36193 2.39942
thorax 3.34789 -2.22568 4.07288
lowerneck -19.1732 -5.2315 -12.9974
upperneck 20.9622 -6.73447 13.2709
head 10.8434 -2.6119 5.99879
lclavicle -6.98231e-15 -4.17448e-14 0
lhumerus -31.8012 -31.8544 101.437
lradius 36.0546 -0 0
lwrist 9.12262 0 0
lhand -8.89082 -24.1619 -0.0371184
lfingers 7.12502 -0 0
lthumb 17.0496 5.08156 -0.0424281
rclavicle -6.98231e-15 -4.17448e-14 0
rhumerus -45.8961 9.0869 -83.4983
rradius 33.6172 -0 0
rwrist -16.99 0 0
rhand -28.9412 -24.7524 -0.00289368
rfingers 7.12502 -0 0
rthumb -2.29486 -54.7167 -0.00294746
341
root 9.53775 16.5533 11.8289 6.60849 7.97067 1.11203
lfemur 9.6153 5.61785 -18.3018
ltibia 17.3031 -0 0
lfoot -2.88341 0.533815 -0.47014
ltoes -11.1236 0 0
rfemur -34.6696 3.28682 19.9741
rtibia 37.4076 -0 0
rfoot -9.66465 1.1583 -0.0394865
rtoes -18.7457 0 0
lowerback -7.27003 -3.32127 -3.59759
upperback -1.23243 -4.22362 2.40775
thorax 3.3124 -2.15492 4.0298
lowerneck -19.2066 -5.26603 -12.9829
upperneck 20.9851 -6.78124 13.2517
head 10.8642 -2.63288 5.98188
lclavicle -6.98231e-15 -4.17448e-14 0
lhumerus -32.2903 -31.4096 101.373
lradius 35.812 -0 0
lwrist 9.23157 0 0
lhand -9.07079 -24.0902 -0.0391438
lfingers 7.12502 -0 0
lthumb 16.8763 5.16656 -0.0447431
rclavicle -6.98231e-15 -4.17448e-14 0
rhumerus -45.5149 9.36945 -83.555
rradius 33.9545 -0 0
rwrist -17.1697 0 0
rhand -29.006 -24.7369 -0.00305152
rfingers 7.12502 -0 0
rthumb -2.35746 -54.7004 -0.00310824
342
root 9.53013 16.571 11.9674 6.59153 7.86102 0.97708
lfemur 8.13585 5.61296 -18.2858
ltibia 18.745 -0 0
lfoot -3.29338 0.911755 -0.491818
ltoes -10.7703 0 0
rfemur -33.9902 3.43415 20.2568
rtibia 37.1602 -0 0
rfoot -10.0048 1.19655 -0.0413039
rtoes -18.7101 0 0
lowerback -7.21538 -3.20903 -3.47706
upperback -1.21985 -4.08531 2.41611
thorax 3.27686 -2.08418 3.98667
lowerneck -19.2401 -5.30055 -12.9684
upperneck 21.0081 -6.82801 13.2325
head 10.885 -2.65385 5.96497
lclavicle -6.98231e-15 -4.17448e-14 0
lhumerus -32.7776 -30.9652 101.305
lradius 35.5694 -0 0
lwrist 9.34053 0 0
lhand -9.25076 -24.0186 -0.0409441
lfingers 7.12502 -0 0
lthumb 16.703 5.25157 -0.046801
rclavicle -6.98231e-15 -4.17448e-14 0
rhumerus -45.1337 9.65237 -83.6099
rradius 34.2919 -0 0
rwrist -17.3495 0 0
rhand -29.0708 -24.7214 -0.00319183
rfingers 7.12502 -0 0
rthumb -2.42005 -54.684 -0.00325115
343
root 9.52251 16.5886 12.1059 6.57483 7.75134 0.842194
lfemur 6.65642 5.60848 -18.2697
ltibia 20.1869 -0 0
lfoot -3.7035 1.28984 -0.51079
ltoes -10.4169 0 0
rfemur -33.31 3.57812 20.5413
rtibia 36.9129 -0 0
rfoot -10.3449 1.2348 -0.0428943
rtoes -18.6746 0 0
lowerback -7.1605 -3.0969 -3.35643
upperback -1.20726 -3.947 2.4245
thorax 3.24126 -2.01348 3.9435
lowerneck -19.2735 -5.33506 -12.9539
upperneck 21.031 -6.87477 13.2133
head 10.9058 -2.67481 5.94805
lclavicle -6.98231e-15 -4.17448e-14 0
lhumerus -33.2634 -30.5213 101.233
lradius 35.3267 -0 0
lwrist 9.44949 0 0
lhand -9.43073 -23.947 -0.0425194
lfingers 7.12502 -0 0
lthumb 16.5296 5.33658 -0.0486016
rclavicle -6.98231e-15 -4.17448e-14 0
rhumerus -44.7524 9.93564 -83.6629
rradius 34.6292 -0 0
rwrist -17.5292 0 0
rhand -29.1356 -24.7059 -0.0033146
rfingers 7.12502 -0 0
rthumb -2.48264 -54.6677 -0.0033762
344
root 9.5149 16.6062 12.2444 6.5584 7.64162 0.707376
lfemur 5.17699 5.60442 -18.2535
ltibia 21.6289 -0 0
lfoot -4.11373 1.66805 -0.527056
ltoes -10.0636 0 0
rfemur -32.6289 3.7187 20.8275
rtibia 36.6655 -0 0
rfoot -10.685 1.27306 -0.0442576
rtoes -18.639 0 0
lowerback -7.1054 -2.98488 -3.2357
upperback -1.19464 -3.8087 2.43292
thorax 3.20562 -1.9428 3.9003
lowerneck -19.307 -5.36957 -12.9394
upperneck 21.054 -6.92152 13.194
head 10.9266 -2.69577 5.93112
lclavicle -6.98231e-15 -4.17448e-14 0
lhumerus -33.7476 -30.078 101.157
lradius 35.0841 -0 0
lwrist 9.55844 0 0
lhand -9.61071 -23.8754 -0.0438698
lfingers 7.12502 -0 0
lthumb 16.3563 5.42159 -0.0501451
rclavicle -6.98231e-15 -4.17448e-14 0
rhumerus -44.371 10.2193 -83.714
rradius 34.9666 -0 0
rwrist -17.709 0 0
rhand -29.2004 -24.6904 -0.00341983
rfingers 7.12502 -0 0
rthumb -2.54523 -54.6513 -0.00348339
